<?xml version="1.0" encoding="UTF-8"?>
<svg width="181px" height="32px" viewBox="0 0 181 32" version="1.1" xmlns="http://www.w3.org/2000/svg" xmlns:xlink="http://www.w3.org/1999/xlink">
    <title>Kolide Logo</title>
    <g id="Wrapper" stroke="none" stroke-width="1" fill="none" fill-rule="evenodd">
        <path id="Icon" fill="#7450F6" d="M15.1481748,0.581387953 C15.6498209,0.0802636707 16.3815413,-0.115931213 17.0657235,0.0676567705 L25.196855,2.24654935 C25.8812999,2.43039998 26.4168268,2.96514266 26.6004135,3.65011757 L31.9323073,23.5485336 C32.115894,24.2340338 31.9199631,24.9644461 31.4185797,25.4668836 L25.4663256,31.4183911 C24.9649422,31.9203033 24.2334844,32.1157102 23.5482516,31.9323849 L3.64997378,26.6001914 C2.96526627,26.4168661 2.42973938,25.8813355 2.24694059,25.1968858 L0.0675378622,17.0656979 C-0.115786204,16.3804603 0.0801446748,15.6497854 0.58179076,15.1486611 Z M15.9991489,10.6666667 L8.66581559,10.6666667 L8.66581559,12 L11.3324823,13.3333333 L11.3324823,26 L15.9991489,26 L15.9991489,20.6666667 L13.9991489,19.3333333 L16.6658156,19.3333333 L20.6658156,26 L25.9991489,26 L20.9991489,18 L25.9991489,10.6666667 L20.6658156,10.6666667 L17.3324823,16 L15.9991489,16 L15.9991489,10.6666667 Z" ></path>
    </g>
</svg>
